<mxfile>
    <diagram id="xqVn1i2_thcktI7SQpAf" name="Page-1">
        <mxGraphModel dx="1436" dy="1618" grid="1" gridSize="10" guides="1" tooltips="1" connect="1" arrows="1" fold="1" page="1" pageScale="1" pageWidth="850" pageHeight="1100" math="0" shadow="0">
            <root>
                <mxCell id="0"/>
                <mxCell id="1" parent="0"/>
                <mxCell id="2" value="&amp;lt;&amp;lt;include&amp;gt;&amp;gt;" style="html=1;verticalAlign=bottom;labelBackgroundColor=none;endArrow=open;endFill=0;dashed=1;entryX=0;entryY=0.5;entryDx=0;entryDy=0;exitX=0.5;exitY=0;exitDx=0;exitDy=0;jumpStyle=arc;" edge="1" parent="1" source="52" target="17">
                    <mxGeometry width="160" relative="1" as="geometry">
                        <mxPoint x="-370" y="-780" as="sourcePoint"/>
                        <mxPoint x="-210" y="-780" as="targetPoint"/>
                    </mxGeometry>
                </mxCell>
                <mxCell id="3" value="&amp;lt;&amp;lt;include&amp;gt;&amp;gt;" style="html=1;verticalAlign=bottom;labelBackgroundColor=none;endArrow=open;endFill=0;dashed=1;entryX=0;entryY=0.5;entryDx=0;entryDy=0;exitX=1;exitY=0.5;exitDx=0;exitDy=0;jumpStyle=arc;" edge="1" parent="1" source="12" target="17">
                    <mxGeometry width="160" relative="1" as="geometry">
                        <mxPoint x="-370" y="-780" as="sourcePoint"/>
                        <mxPoint x="-210" y="-780" as="targetPoint"/>
                    </mxGeometry>
                </mxCell>
                <mxCell id="4" value="&amp;lt;&amp;lt;include&amp;gt;&amp;gt;" style="html=1;verticalAlign=bottom;labelBackgroundColor=none;endArrow=open;endFill=0;dashed=1;entryX=0;entryY=0.5;entryDx=0;entryDy=0;exitX=1;exitY=0.5;exitDx=0;exitDy=0;jumpStyle=arc;" edge="1" parent="1" source="13" target="17">
                    <mxGeometry width="160" relative="1" as="geometry">
                        <mxPoint x="-370" y="-780" as="sourcePoint"/>
                        <mxPoint x="-210" y="-780" as="targetPoint"/>
                    </mxGeometry>
                </mxCell>
                <mxCell id="5" value="&amp;lt;&amp;lt;include&amp;gt;&amp;gt;" style="html=1;verticalAlign=bottom;labelBackgroundColor=none;endArrow=open;endFill=0;dashed=1;entryX=0;entryY=0.5;entryDx=0;entryDy=0;exitX=1;exitY=0.5;exitDx=0;exitDy=0;jumpStyle=arc;" edge="1" parent="1" source="22" target="17">
                    <mxGeometry width="160" relative="1" as="geometry">
                        <mxPoint x="-370" y="-780" as="sourcePoint"/>
                        <mxPoint x="-210" y="-780" as="targetPoint"/>
                    </mxGeometry>
                </mxCell>
                <mxCell id="6" value="&amp;lt;&amp;lt;include&amp;gt;&amp;gt;" style="html=1;verticalAlign=bottom;labelBackgroundColor=none;endArrow=open;endFill=0;dashed=1;entryX=0;entryY=0.5;entryDx=0;entryDy=0;exitX=1;exitY=0.5;exitDx=0;exitDy=0;jumpStyle=arc;" edge="1" parent="1" source="28" target="17">
                    <mxGeometry width="160" relative="1" as="geometry">
                        <mxPoint x="-370" y="-780" as="sourcePoint"/>
                        <mxPoint x="-210" y="-780" as="targetPoint"/>
                    </mxGeometry>
                </mxCell>
                <mxCell id="7" value="Orang Tua Siswa" style="shape=umlActor;verticalLabelPosition=bottom;verticalAlign=top;html=1;" vertex="1" parent="1">
                    <mxGeometry x="-800" y="-1090" width="30" height="60" as="geometry"/>
                </mxCell>
                <mxCell id="8" value="Siswa" style="shape=umlActor;verticalLabelPosition=bottom;verticalAlign=top;html=1;" vertex="1" parent="1">
                    <mxGeometry x="-800" y="-890" width="30" height="60" as="geometry"/>
                </mxCell>
                <mxCell id="9" value="Guru Mapel" style="shape=umlActor;verticalLabelPosition=bottom;verticalAlign=top;html=1;" vertex="1" parent="1">
                    <mxGeometry x="-800" y="-720" width="30" height="60" as="geometry"/>
                </mxCell>
                <mxCell id="10" value="Walikelas" style="shape=umlActor;verticalLabelPosition=bottom;verticalAlign=top;html=1;" vertex="1" parent="1">
                    <mxGeometry x="-800" y="-530" width="30" height="60" as="geometry"/>
                </mxCell>
                <mxCell id="11" value="Operator" style="shape=umlActor;verticalLabelPosition=bottom;verticalAlign=top;html=1;" vertex="1" parent="1">
                    <mxGeometry x="-800" y="-340" width="30" height="60" as="geometry"/>
                </mxCell>
                <mxCell id="12" value="Lihat Nilai" style="ellipse;whiteSpace=wrap;html=1;" vertex="1" parent="1">
                    <mxGeometry x="-580" y="-990" width="90" height="45" as="geometry"/>
                </mxCell>
                <mxCell id="13" value="Testimoni" style="ellipse;whiteSpace=wrap;html=1;" vertex="1" parent="1">
                    <mxGeometry x="-580" y="-882.5" width="90" height="45" as="geometry"/>
                </mxCell>
                <mxCell id="14" value="" style="endArrow=none;html=1;rounded=0;exitX=0.5;exitY=0.5;exitDx=0;exitDy=0;exitPerimeter=0;entryX=0;entryY=0.5;entryDx=0;entryDy=0;" edge="1" parent="1" source="7" target="12">
                    <mxGeometry relative="1" as="geometry">
                        <mxPoint x="-810" y="-990" as="sourcePoint"/>
                        <mxPoint x="-650" y="-990" as="targetPoint"/>
                    </mxGeometry>
                </mxCell>
                <mxCell id="15" value="" style="endArrow=none;html=1;rounded=0;exitX=0.5;exitY=0.5;exitDx=0;exitDy=0;exitPerimeter=0;entryX=0;entryY=0.5;entryDx=0;entryDy=0;" edge="1" parent="1" source="8" target="12">
                    <mxGeometry relative="1" as="geometry">
                        <mxPoint x="-810" y="-990" as="sourcePoint"/>
                        <mxPoint x="-650" y="-990" as="targetPoint"/>
                    </mxGeometry>
                </mxCell>
                <mxCell id="16" value="" style="endArrow=none;html=1;rounded=0;exitX=0.5;exitY=0.5;exitDx=0;exitDy=0;exitPerimeter=0;entryX=0;entryY=0.5;entryDx=0;entryDy=0;" edge="1" parent="1" source="8" target="13">
                    <mxGeometry relative="1" as="geometry">
                        <mxPoint x="-810" y="-990" as="sourcePoint"/>
                        <mxPoint x="-650" y="-990" as="targetPoint"/>
                    </mxGeometry>
                </mxCell>
                <mxCell id="17" value="Login" style="ellipse;whiteSpace=wrap;html=1;" vertex="1" parent="1">
                    <mxGeometry x="-190" y="-600" width="90" height="45" as="geometry"/>
                </mxCell>
                <mxCell id="18" value="Kirim" style="ellipse;whiteSpace=wrap;html=1;" vertex="1" parent="1">
                    <mxGeometry x="-750" y="-800" width="90" height="45" as="geometry"/>
                </mxCell>
                <mxCell id="19" value="Edit" style="ellipse;whiteSpace=wrap;html=1;" vertex="1" parent="1">
                    <mxGeometry x="-450" y="-800" width="90" height="45" as="geometry"/>
                </mxCell>
                <mxCell id="20" value="&amp;lt;&amp;lt;extend&amp;gt;&amp;gt;" style="html=1;verticalAlign=bottom;labelBackgroundColor=none;endArrow=open;endFill=0;dashed=1;exitX=0.5;exitY=0;exitDx=0;exitDy=0;entryX=0.5;entryY=1;entryDx=0;entryDy=0;" edge="1" parent="1" source="18" target="13">
                    <mxGeometry x="-0.3514" y="-3" width="160" relative="1" as="geometry">
                        <mxPoint x="-650" y="-940" as="sourcePoint"/>
                        <mxPoint x="-490" y="-940" as="targetPoint"/>
                        <mxPoint as="offset"/>
                    </mxGeometry>
                </mxCell>
                <mxCell id="21" value="&amp;lt;&amp;lt;extend&amp;gt;&amp;gt;" style="html=1;verticalAlign=bottom;labelBackgroundColor=none;endArrow=open;endFill=0;dashed=1;exitX=0.5;exitY=0;exitDx=0;exitDy=0;entryX=0.5;entryY=1;entryDx=0;entryDy=0;" edge="1" parent="1" source="19" target="13">
                    <mxGeometry x="-0.4007" y="13" width="160" relative="1" as="geometry">
                        <mxPoint x="-650" y="-940" as="sourcePoint"/>
                        <mxPoint x="-490" y="-940" as="targetPoint"/>
                        <mxPoint as="offset"/>
                    </mxGeometry>
                </mxCell>
                <mxCell id="22" value="Manajemen Nilai Siswa" style="ellipse;whiteSpace=wrap;html=1;" vertex="1" parent="1">
                    <mxGeometry x="-580" y="-712.5" width="90" height="45" as="geometry"/>
                </mxCell>
                <mxCell id="23" value="" style="endArrow=none;html=1;rounded=0;entryX=0;entryY=0.5;entryDx=0;entryDy=0;exitX=0.5;exitY=0.5;exitDx=0;exitDy=0;exitPerimeter=0;" edge="1" parent="1" source="9" target="22">
                    <mxGeometry relative="1" as="geometry">
                        <mxPoint x="-730" y="-710" as="sourcePoint"/>
                        <mxPoint x="-650" y="-820" as="targetPoint"/>
                    </mxGeometry>
                </mxCell>
                <mxCell id="24" value="Pilih Guru Mapel" style="ellipse;whiteSpace=wrap;html=1;" vertex="1" parent="1">
                    <mxGeometry x="-650" y="-800" width="90" height="45" as="geometry"/>
                </mxCell>
                <mxCell id="25" value="&amp;lt;&amp;lt;extend&amp;gt;&amp;gt;" style="html=1;verticalAlign=bottom;labelBackgroundColor=none;endArrow=open;endFill=0;dashed=1;exitX=0.5;exitY=0;exitDx=0;exitDy=0;entryX=0.5;entryY=1;entryDx=0;entryDy=0;" edge="1" parent="1" source="24" target="13">
                    <mxGeometry x="-1" width="160" relative="1" as="geometry">
                        <mxPoint x="-650" y="-940" as="sourcePoint"/>
                        <mxPoint x="-490" y="-940" as="targetPoint"/>
                        <mxPoint as="offset"/>
                    </mxGeometry>
                </mxCell>
                <mxCell id="26" value="Manajemen Nilai Siswa" style="ellipse;whiteSpace=wrap;html=1;" vertex="1" parent="1">
                    <mxGeometry x="-580" y="-522.5" width="90" height="45" as="geometry"/>
                </mxCell>
                <mxCell id="27" value="" style="endArrow=none;html=1;rounded=0;entryX=0;entryY=0.5;entryDx=0;entryDy=0;exitX=0.5;exitY=0.5;exitDx=0;exitDy=0;exitPerimeter=0;" edge="1" parent="1" source="10" target="26">
                    <mxGeometry relative="1" as="geometry">
                        <mxPoint x="-730" y="-520" as="sourcePoint"/>
                        <mxPoint x="-650" y="-627.5" as="targetPoint"/>
                    </mxGeometry>
                </mxCell>
                <mxCell id="28" value="Manajemen Data Siswa" style="ellipse;whiteSpace=wrap;html=1;" vertex="1" parent="1">
                    <mxGeometry x="-580" y="-332.5" width="90" height="45" as="geometry"/>
                </mxCell>
                <mxCell id="29" value="" style="endArrow=none;html=1;rounded=0;entryX=0;entryY=0.5;entryDx=0;entryDy=0;exitX=0.5;exitY=0.5;exitDx=0;exitDy=0;exitPerimeter=0;" edge="1" parent="1" source="11" target="28">
                    <mxGeometry relative="1" as="geometry">
                        <mxPoint x="-785" y="-307.5" as="sourcePoint"/>
                        <mxPoint x="-650" y="-437.5" as="targetPoint"/>
                    </mxGeometry>
                </mxCell>
                <mxCell id="30" value="Kirim Nilai" style="ellipse;whiteSpace=wrap;html=1;" vertex="1" parent="1">
                    <mxGeometry x="-680" y="-630" width="90" height="45" as="geometry"/>
                </mxCell>
                <mxCell id="31" value="&amp;lt;&amp;lt;extend&amp;gt;&amp;gt;" style="html=1;verticalAlign=bottom;labelBackgroundColor=none;endArrow=open;endFill=0;dashed=1;exitX=0.5;exitY=0;exitDx=0;exitDy=0;entryX=0.5;entryY=1;entryDx=0;entryDy=0;" edge="1" parent="1" source="30" target="22">
                    <mxGeometry x="-0.3514" y="-3" width="160" relative="1" as="geometry">
                        <mxPoint x="-650" y="-770" as="sourcePoint"/>
                        <mxPoint x="-535" y="-660" as="targetPoint"/>
                        <mxPoint as="offset"/>
                    </mxGeometry>
                </mxCell>
                <mxCell id="32" value="Edit" style="ellipse;whiteSpace=wrap;html=1;" vertex="1" parent="1">
                    <mxGeometry x="-580" y="-630" width="90" height="45" as="geometry"/>
                </mxCell>
                <mxCell id="33" value="Hapus" style="ellipse;whiteSpace=wrap;html=1;" vertex="1" parent="1">
                    <mxGeometry x="-480" y="-630" width="90" height="45" as="geometry"/>
                </mxCell>
                <mxCell id="34" value="Input Nilai" style="ellipse;whiteSpace=wrap;html=1;" vertex="1" parent="1">
                    <mxGeometry x="-680" y="-410" width="90" height="45" as="geometry"/>
                </mxCell>
                <mxCell id="35" value="Edit" style="ellipse;whiteSpace=wrap;html=1;" vertex="1" parent="1">
                    <mxGeometry x="-580" y="-410" width="90" height="45" as="geometry"/>
                </mxCell>
                <mxCell id="36" value="Hapus" style="ellipse;whiteSpace=wrap;html=1;" vertex="1" parent="1">
                    <mxGeometry x="-480" y="-410" width="90" height="45" as="geometry"/>
                </mxCell>
                <mxCell id="37" value="&amp;lt;&amp;lt;extend&amp;gt;&amp;gt;" style="html=1;verticalAlign=bottom;labelBackgroundColor=none;endArrow=open;endFill=0;dashed=1;exitX=0.5;exitY=0;exitDx=0;exitDy=0;entryX=0.5;entryY=1;entryDx=0;entryDy=0;" edge="1" parent="1" source="34" target="26">
                    <mxGeometry x="-0.3514" y="-3" width="160" relative="1" as="geometry">
                        <mxPoint x="-650" y="-770" as="sourcePoint"/>
                        <mxPoint x="-535" y="-660" as="targetPoint"/>
                        <mxPoint as="offset"/>
                    </mxGeometry>
                </mxCell>
                <mxCell id="38" value="&amp;lt;&amp;lt;extend&amp;gt;&amp;gt;" style="html=1;verticalAlign=bottom;labelBackgroundColor=none;endArrow=open;endFill=0;dashed=1;exitX=0.5;exitY=0;exitDx=0;exitDy=0;entryX=0.5;entryY=1;entryDx=0;entryDy=0;" edge="1" parent="1" source="35" target="26">
                    <mxGeometry x="-0.3514" y="-3" width="160" relative="1" as="geometry">
                        <mxPoint x="-650" y="-770" as="sourcePoint"/>
                        <mxPoint x="-535" y="-660" as="targetPoint"/>
                        <mxPoint as="offset"/>
                    </mxGeometry>
                </mxCell>
                <mxCell id="39" value="&amp;lt;&amp;lt;extend&amp;gt;&amp;gt;" style="html=1;verticalAlign=bottom;labelBackgroundColor=none;endArrow=open;endFill=0;dashed=1;exitX=0.5;exitY=0;exitDx=0;exitDy=0;entryX=0.5;entryY=1;entryDx=0;entryDy=0;" edge="1" parent="1" source="36" target="26">
                    <mxGeometry x="-0.3514" y="-3" width="160" relative="1" as="geometry">
                        <mxPoint x="-650" y="-770" as="sourcePoint"/>
                        <mxPoint x="-535" y="-660" as="targetPoint"/>
                        <mxPoint as="offset"/>
                    </mxGeometry>
                </mxCell>
                <mxCell id="40" value="Hapus" style="ellipse;whiteSpace=wrap;html=1;" vertex="1" parent="1">
                    <mxGeometry x="-550" y="-800" width="90" height="45" as="geometry"/>
                </mxCell>
                <mxCell id="41" value="&amp;lt;&amp;lt;extend&amp;gt;&amp;gt;" style="html=1;verticalAlign=bottom;labelBackgroundColor=none;endArrow=open;endFill=0;dashed=1;exitX=0.5;exitY=0;exitDx=0;exitDy=0;entryX=0.5;entryY=1;entryDx=0;entryDy=0;" edge="1" parent="1" source="40" target="13">
                    <mxGeometry x="-0.4007" y="13" width="160" relative="1" as="geometry">
                        <mxPoint x="-650" y="-940" as="sourcePoint"/>
                        <mxPoint x="-490" y="-940" as="targetPoint"/>
                        <mxPoint as="offset"/>
                    </mxGeometry>
                </mxCell>
                <mxCell id="42" value="&amp;lt;&amp;lt;extend&amp;gt;&amp;gt;" style="html=1;verticalAlign=bottom;labelBackgroundColor=none;endArrow=open;endFill=0;dashed=1;exitX=0.5;exitY=0;exitDx=0;exitDy=0;entryX=0.5;entryY=1;entryDx=0;entryDy=0;" edge="1" parent="1" source="30" target="22">
                    <mxGeometry x="-0.3514" y="-3" width="160" relative="1" as="geometry">
                        <mxPoint x="-650" y="-770" as="sourcePoint"/>
                        <mxPoint x="-535" y="-660" as="targetPoint"/>
                        <mxPoint as="offset"/>
                    </mxGeometry>
                </mxCell>
                <mxCell id="43" value="&amp;lt;&amp;lt;extend&amp;gt;&amp;gt;" style="html=1;verticalAlign=bottom;labelBackgroundColor=none;endArrow=open;endFill=0;dashed=1;exitX=0.5;exitY=0;exitDx=0;exitDy=0;entryX=0.5;entryY=1;entryDx=0;entryDy=0;" edge="1" parent="1" source="32" target="22">
                    <mxGeometry x="-0.3514" y="-3" width="160" relative="1" as="geometry">
                        <mxPoint x="-650" y="-770" as="sourcePoint"/>
                        <mxPoint x="-535" y="-660" as="targetPoint"/>
                        <mxPoint as="offset"/>
                    </mxGeometry>
                </mxCell>
                <mxCell id="44" value="&amp;lt;&amp;lt;extend&amp;gt;&amp;gt;" style="html=1;verticalAlign=bottom;labelBackgroundColor=none;endArrow=open;endFill=0;dashed=1;exitX=0.5;exitY=0;exitDx=0;exitDy=0;entryX=0.5;entryY=1;entryDx=0;entryDy=0;" edge="1" parent="1" source="33" target="22">
                    <mxGeometry x="-0.3514" y="-3" width="160" relative="1" as="geometry">
                        <mxPoint x="-650" y="-770" as="sourcePoint"/>
                        <mxPoint x="-535" y="-660" as="targetPoint"/>
                        <mxPoint as="offset"/>
                    </mxGeometry>
                </mxCell>
                <mxCell id="45" value="Hapus" style="ellipse;whiteSpace=wrap;html=1;" vertex="1" parent="1">
                    <mxGeometry x="-480" y="-260" width="90" height="45" as="geometry"/>
                </mxCell>
                <mxCell id="46" value="Edit" style="ellipse;whiteSpace=wrap;html=1;" vertex="1" parent="1">
                    <mxGeometry x="-580" y="-240" width="90" height="45" as="geometry"/>
                </mxCell>
                <mxCell id="47" value="Input Data Siswa" style="ellipse;whiteSpace=wrap;html=1;" vertex="1" parent="1">
                    <mxGeometry x="-680" y="-260" width="90" height="45" as="geometry"/>
                </mxCell>
                <mxCell id="48" value="&amp;lt;&amp;lt;extend&amp;gt;&amp;gt;" style="html=1;verticalAlign=bottom;labelBackgroundColor=none;endArrow=open;endFill=0;dashed=1;exitX=0.5;exitY=0;exitDx=0;exitDy=0;entryX=0.5;entryY=1;entryDx=0;entryDy=0;" edge="1" parent="1" source="47" target="28">
                    <mxGeometry x="-0.3514" y="-3" width="160" relative="1" as="geometry">
                        <mxPoint x="-650" y="-770" as="sourcePoint"/>
                        <mxPoint x="-535" y="-660" as="targetPoint"/>
                        <mxPoint as="offset"/>
                    </mxGeometry>
                </mxCell>
                <mxCell id="49" value="&amp;lt;&amp;lt;extend&amp;gt;&amp;gt;" style="html=1;verticalAlign=bottom;labelBackgroundColor=none;endArrow=open;endFill=0;dashed=1;exitX=0.5;exitY=0;exitDx=0;exitDy=0;entryX=0.5;entryY=1;entryDx=0;entryDy=0;" edge="1" parent="1" source="46" target="28">
                    <mxGeometry x="-0.3514" y="-3" width="160" relative="1" as="geometry">
                        <mxPoint x="-650" y="-770" as="sourcePoint"/>
                        <mxPoint x="-535" y="-660" as="targetPoint"/>
                        <mxPoint as="offset"/>
                    </mxGeometry>
                </mxCell>
                <mxCell id="50" value="&amp;lt;&amp;lt;extend&amp;gt;&amp;gt;" style="html=1;verticalAlign=bottom;labelBackgroundColor=none;endArrow=open;endFill=0;dashed=1;exitX=0.5;exitY=0;exitDx=0;exitDy=0;entryX=0.5;entryY=1;entryDx=0;entryDy=0;jumpStyle=arc;" edge="1" parent="1" source="45" target="28">
                    <mxGeometry x="-0.3514" y="-3" width="160" relative="1" as="geometry">
                        <mxPoint x="-650" y="-770" as="sourcePoint"/>
                        <mxPoint x="-535" y="-660" as="targetPoint"/>
                        <mxPoint as="offset"/>
                    </mxGeometry>
                </mxCell>
                <mxCell id="51" value="&amp;lt;&amp;lt;include&amp;gt;&amp;gt;" style="html=1;verticalAlign=bottom;labelBackgroundColor=none;endArrow=open;endFill=0;dashed=1;entryX=0;entryY=0.5;entryDx=0;entryDy=0;exitX=1;exitY=0.5;exitDx=0;exitDy=0;jumpStyle=arc;" edge="1" parent="1" source="26" target="17">
                    <mxGeometry width="160" relative="1" as="geometry">
                        <mxPoint x="-370" y="-780" as="sourcePoint"/>
                        <mxPoint x="-210" y="-780" as="targetPoint"/>
                    </mxGeometry>
                </mxCell>
                <mxCell id="52" value="Manajemen Data Guru" style="ellipse;whiteSpace=wrap;html=1;" vertex="1" parent="1">
                    <mxGeometry x="-580" y="-170" width="90" height="45" as="geometry"/>
                </mxCell>
                <mxCell id="53" value="Hapus" style="ellipse;whiteSpace=wrap;html=1;" vertex="1" parent="1">
                    <mxGeometry x="-480" y="-97.5" width="90" height="45" as="geometry"/>
                </mxCell>
                <mxCell id="54" value="Edit" style="ellipse;whiteSpace=wrap;html=1;" vertex="1" parent="1">
                    <mxGeometry x="-580" y="-77.5" width="90" height="45" as="geometry"/>
                </mxCell>
                <mxCell id="55" value="Input Data \Guru" style="ellipse;whiteSpace=wrap;html=1;" vertex="1" parent="1">
                    <mxGeometry x="-680" y="-97.5" width="90" height="45" as="geometry"/>
                </mxCell>
                <mxCell id="56" value="&amp;lt;&amp;lt;extend&amp;gt;&amp;gt;" style="html=1;verticalAlign=bottom;labelBackgroundColor=none;endArrow=open;endFill=0;dashed=1;exitX=0.5;exitY=0;exitDx=0;exitDy=0;entryX=0.5;entryY=1;entryDx=0;entryDy=0;" edge="1" parent="1" source="55" target="52">
                    <mxGeometry x="-0.3514" y="-3" width="160" relative="1" as="geometry">
                        <mxPoint x="-650" y="-607.5" as="sourcePoint"/>
                        <mxPoint x="-535" y="-497.5" as="targetPoint"/>
                        <mxPoint as="offset"/>
                    </mxGeometry>
                </mxCell>
                <mxCell id="57" value="&amp;lt;&amp;lt;extend&amp;gt;&amp;gt;" style="html=1;verticalAlign=bottom;labelBackgroundColor=none;endArrow=open;endFill=0;dashed=1;exitX=0.5;exitY=0;exitDx=0;exitDy=0;entryX=0.5;entryY=1;entryDx=0;entryDy=0;" edge="1" parent="1" source="54" target="52">
                    <mxGeometry x="-0.3514" y="-3" width="160" relative="1" as="geometry">
                        <mxPoint x="-650" y="-607.5" as="sourcePoint"/>
                        <mxPoint x="-535" y="-497.5" as="targetPoint"/>
                        <mxPoint as="offset"/>
                    </mxGeometry>
                </mxCell>
                <mxCell id="58" value="&amp;lt;&amp;lt;extend&amp;gt;&amp;gt;" style="html=1;verticalAlign=bottom;labelBackgroundColor=none;endArrow=open;endFill=0;dashed=1;exitX=0.5;exitY=0;exitDx=0;exitDy=0;entryX=0.5;entryY=1;entryDx=0;entryDy=0;" edge="1" parent="1" source="53" target="52">
                    <mxGeometry x="-0.3514" y="-3" width="160" relative="1" as="geometry">
                        <mxPoint x="-650" y="-607.5" as="sourcePoint"/>
                        <mxPoint x="-535" y="-497.5" as="targetPoint"/>
                        <mxPoint as="offset"/>
                    </mxGeometry>
                </mxCell>
            </root>
        </mxGraphModel>
    </diagram>
</mxfile>